<svg xmlns="http://www.w3.org/2000/svg" width="17.273" height="20" viewBox="0 0 17.273 20">
  <path id="_09_Graph_Presentation_Business_Analytics_Charting_Application_Easel_Board_Statistics" data-name="09 Graph Presentation, Business Analytics, Charting Application, Easel Board, Statistics" d="M22.273,9.273V8.364h-2.55L14.891,3.9A1.4,1.4,0,0,0,15,3.364a1.364,1.364,0,1,0-2.727,0,1.4,1.4,0,0,0,.109.536L7.55,8.364H5v.909h.909V21.091H5V22H22.273v-.909h-.909V9.273ZM13.636,2.909a.455.455,0,1,1-.455.455A.455.455,0,0,1,13.636,2.909ZM13,4.564a1.3,1.3,0,0,0,1.264,0l4.091,3.8H8.891Zm7.45,16.527H6.818V9.273H20.455Zm-9.545-1.818h8.636v-.909h-.909V11.545a.455.455,0,0,0-.455-.455H16.364a.455.455,0,0,0-.455.455v6.818H15v-5a.455.455,0,0,0-.455-.455H12.727a.455.455,0,0,0-.455.455v5h-.909V15.636a.455.455,0,0,0-.455-.455H9.091a.455.455,0,0,0-.455.455v2.727H7.727v.909ZM16.818,12h.909v6.364h-.909Zm-3.636,1.818h.909v4.545h-.909ZM9.545,16.091h.909v2.273H9.545Z" transform="translate(-5 -2)" fill="#fff"/>
</svg>
