<svg id="Layer_2" data-name="Layer 2" xmlns="http://www.w3.org/2000/svg" width="24" height="24" viewBox="0 0 24 24">
  <g id="grid">
    <rect id="Rectangle_3466" data-name="Rectangle 3466" width="24" height="24" opacity="0"/>
    <path id="Path_10942" data-name="Path 10942" d="M15,3h4a2,2,0,0,1,2,2V9a2,2,0,0,1-2,2H15a2,2,0,0,1-2-2V5A2,2,0,0,1,15,3Zm4,6V5H15V9ZM5,3H9a2,2,0,0,1,2,2V9a2,2,0,0,1-2,2H5A2,2,0,0,1,3,9V5A2,2,0,0,1,5,3ZM9,9V5H5V9Zm6,4h4a2,2,0,0,1,2,2v4a2,2,0,0,1-2,2H15a2,2,0,0,1-2-2V15A2,2,0,0,1,15,13Zm4,6V15H15v4ZM5,13H9a2,2,0,0,1,2,2v4a2,2,0,0,1-2,2H5a2,2,0,0,1-2-2V15A2,2,0,0,1,5,13Zm4,6V15H5v4Z" fill="#afacc5" stroke="#fff" stroke-width="0.5"/>
  </g>
</svg>
