<?xml version="1.0" standalone="yes"?>
<svg xmlns="http://www.w3.org/2000/svg" width="225" height="225">
<path style="fill:#e5ebf7; stroke:none;" d="M0 0L0 109L1 109C1 54.6973 49.4409 1.45998 105 1L73 0L0 0z"/>
<path style="fill:#bed8fa; stroke:none;" d="M31 189L30 174L31 174L31 176L32 176L31 172L33 173L33 172L32 170L32 169L34 170L37 163L38 162L44 160L43 158L46 159L45 157L46 157L48 158L49 158L48 156L49 156L51 157L52 157L51 155L52 155L54 156L55 156L54 154L55 154L57 155L58 155L57 153L58 153L65 153L65 152L63 152L63 151L68 152L67 150L68 150L71 151L71 148L74 149L73 147L76 148L75 146L78 147L77 145L80 146L82 145L82 143L84 144L84 142L86 143L86 141L88 142L88 140L90 141L90 139L92 140C96.0959 122.796 79.1888 113.935 77 97C68.9165 94.6749 70 86.953 70 80L78 80L78 79L69 79L69 51L70 51L70 53L71 53L70 48L72 49L72 48L71 46L71 45L73 46L72 43L74 41L79 36L81 34L84 35L83 33L87 34L87 33L85 33L85 32L91 33L91 32L89 32L89 31L123 31C127.118 31 133.81 29.7584 133 33L136 32L135 34L139 38L141 37L141 38L140 42L141 42L141 40L142 40L141 45L147 47L150 46L154 49L154 54L156 79L146 79L146 80L155 80C155 87.1887 155.99 94.2163 148 97C145.804 114.001 128.93 122.904 133 140L135 141L137 140L137 142L139 141L139 143L142 142L141 144L143 145L146 144L145 146L148 145L147 147L150 146L149 148L152 147L151 149L154 148L154 151L159 150L159 151L157 151L157 152L162 151L162 152L160 152L160 153L165 152L164 154L165 154L167 153L168 153L167 155L168 155L170 154L171 154L170 156L171 156L173 155L174 155C174.464 158.09 177.277 157.496 180 157L179 159L182 158L181 160C190.67 160 196.203 180.243 193.833 188C192.758 191.52 188.812 193.87 187 197C209.199 181.32 221.978 149.222 224.086 123C225.779 101.931 222.29 82.3366 213.564 63C206.106 46.4731 192.844 31.2755 178 21.0255C132.174 -10.6185 68.5166 -5.30739 30.0895 36C0.420795 67.8925 -7.5876 115.995 9.01157 156C13.7975 167.534 20.9367 181.298 31 189z"/>
<path style="fill:#e5ebf7; stroke:none;" d="M120 0L120 1C172.865 1.14584 223.854 52.1265 224 105L225 105L225 0L120 0M89 31L89 32L134 32C122.299 27.09 101.742 31 89 31M85 32L85 33L88 33L85 32z"/>
<path style="fill:#4a7da4; stroke:none;" d="M91 32L91 33L126 33L91 32z"/>
<path style="fill:#345c7a; stroke:none;" d="M71 79C74.6485 78.9976 79.6094 79.6792 82.2577 76.5664C86.3898 71.7095 82.7114 64.6229 90.0154 61.2191C94.4975 59.1304 101.275 62.373 106 62.8302C115.017 63.7029 123.322 60.376 132 60.5532C141.962 60.7567 138.485 71.5645 142.742 76.5664C145.392 79.6788 150.351 78.9976 154 79C154 71.389 156.603 57.863 152.821 51.108C150.468 46.905 145.569 47.3386 142.314 44.4367C138.582 41.11 139.032 35.8457 133.985 33.3179C129.382 31.0128 123.881 32.9381 119 32.9961C105.261 33.1596 85.5648 28.9468 75.7894 41.1736C67.9425 50.9882 71 67.2464 71 79z"/>
<path style="fill:#4a7da4; stroke:none;" d="M132 32L133 33L132 32z"/>
<path style="fill:#e5ebf7; stroke:none;" d="M134.667 32.3333L135.333 32.6667L134.667 32.3333M83.6667 33.3333L84.3333 33.6667L83.6667 33.3333z"/>
<path style="fill:#4a7da4; stroke:none;" d="M87 33L88 34L87 33z"/>
<path style="fill:#e5ebf7; stroke:none;" d="M136 33L140 37L136 33M81.6667 34.3333L82.3333 34.6667L81.6667 34.3333z"/>
<path style="fill:#4a7da4; stroke:none;" d="M84 34L85 35L84 34M136 34L137 35L136 34z"/>
<path style="fill:#e5ebf7; stroke:none;" d="M80 35L81 36L80 35z"/>
<path style="fill:#4a7da4; stroke:none;" d="M82 35L83 36L82 35M137 35L138 36L137 35z"/>
<path style="fill:#e5ebf7; stroke:none;" d="M79 36L80 37L79 36z"/>
<path style="fill:#4a7da4; stroke:none;" d="M138 36L139 37L138 36z"/>
<path style="fill:#e5ebf7; stroke:none;" d="M77 37L75 40L77 37z"/>
<path style="fill:#4a7da4; stroke:none;" d="M79 37L80 38L79 37z"/>
<path style="fill:#e5ebf7; stroke:none;" d="M140.333 37.6667L140.667 38.3333L140.333 37.6667z"/>
<path style="fill:#4a7da4; stroke:none;" d="M78 38L79 39L78 38M139 38L140 39L139 38z"/>
<path style="fill:#e5ebf7; stroke:none;" d="M141 40L141 44L142 44L141 40M74 41L75 42L74 41z"/>
<path style="fill:#4a7da4; stroke:none;" d="M75 41L76 42L75 41z"/>
<path style="fill:#e5ebf7; stroke:none;" d="M73 42L74 43L73 42z"/>
<path style="fill:#4a7da4; stroke:none;" d="M140.333 42.6667L140.667 43.3333L140.333 42.6667z"/>
<path style="fill:#e5ebf7; stroke:none;" d="M72.3333 43.6667L72.6667 44.3333L72.3333 43.6667z"/>
<path style="fill:#4a7da4; stroke:none;" d="M73 44L74 45L73 44z"/>
<path style="fill:#e5ebf7; stroke:none;" d="M142 44L143 45L142 44M71.3333 45.6667L71.6667 46.3333L71.3333 45.6667M144 45L144 46L148 46L144 45z"/>
<path style="fill:#4a7da4; stroke:none;" d="M72 46L73 47L72 46M146 46L147 47L146 46z"/>
<path style="fill:#e5ebf7; stroke:none;" d="M149 46L150 47L149 46z"/>
<path style="fill:#4a7da4; stroke:none;" d="M149 47L150 48L149 47z"/>
<path style="fill:#e5ebf7; stroke:none;" d="M151 47L153 49L151 47M70.3333 48.6667L70.6667 49.3333L70.3333 48.6667z"/>
<path style="fill:#4a7da4; stroke:none;" d="M71 49L72 50L71 49z"/>
<path style="fill:#e5ebf7; stroke:none;" d="M153 49L155 52L153 49M69 51L69 79L70 79L69 51z"/>
<path style="fill:#4a7da4; stroke:none;" d="M153 51L154 52L153 51M70 53L70 79L71 79L70 53z"/>
<path style="fill:#e5ebf7; stroke:none;" d="M155 53L155 79L156 79L155 53z"/>
<path style="fill:#4a7da4; stroke:none;" d="M154 54L154 79L155 79L154 54z"/>
<path style="fill:#dc7c84; stroke:none;" d="M90 60L91 61L90 60z"/>
<path style="fill:#bed8fa; stroke:none;" d="M91.6667 60.3333L92.3333 60.6667L91.6667 60.3333z"/>
<path style="fill:#dc7c84; stroke:none;" d="M93 60L94 61L93 60z"/>
<path style="fill:#4a7da4; stroke:none;" d="M94 60L95 61L94 60M130 60L131 61L130 60z"/>
<path style="fill:#dc7c84; stroke:none;" d="M131 60L132 61L131 60z"/>
<path style="fill:#bed8fa; stroke:none;" d="M132.667 60.3333L133.333 60.6667L132.667 60.3333z"/>
<path style="fill:#dc7c84; stroke:none;" d="M134 60L135 61L134 60z"/>
<path style="fill:#bed8fa; stroke:none;" d="M88 61L89 62L88 61z"/>
<path style="fill:#e5ebf7; stroke:none;" d="M70 80C70 86.8323 68.3779 95.6366 77 97C78.3207 113.596 95.8257 122.931 92 139L94 139C85.281 155.613 90.8816 185.759 101 201C103.336 194.809 106.717 185.662 106.471 179C106.356 175.866 103.083 173.141 103.616 170.09C105.176 161.157 116.501 161.294 120.454 168.015C122.761 171.935 118.66 175.054 118.528 179C118.303 185.679 121.658 194.793 124 201C134.118 185.759 139.719 155.613 131 139L133 139C129.197 123.027 146.675 113.654 148 97C156.557 95.2308 155 87.0183 155 80C149.948 79.9855 143.993 79.9576 141.179 74.8951C138.217 69.566 140.932 61.2725 131.999 61.1489C124.239 61.0416 116.993 64.4702 109 63.9105C103.052 63.494 94.9393 59.2256 89.189 61.7431C83.9993 64.0151 85.9498 69.7674 84.142 73.956C81.6991 79.6161 75.3226 79.9553 70 80z"/>
<path style="fill:#bed8fa; stroke:none;" d="M96 61L97 62L96 61z"/>
<path style="fill:#dc7c84; stroke:none;" d="M97 61L98 62L97 61M127 61L128 62L127 61z"/>
<path style="fill:#bed8fa; stroke:none;" d="M128 61L129 62L128 61M136 61L137 62L136 61M100 62L101 63L100 62z"/>
<path style="fill:#dc7c84; stroke:none;" d="M101 62L102 63L101 62z"/>
<path style="fill:#4a7da4; stroke:none;" d="M102.667 62.3333L103.333 62.6667L102.667 62.3333M121.667 62.3333L122.333 62.6667L121.667 62.3333z"/>
<path style="fill:#dc7c84; stroke:none;" d="M123 62L124 63L123 62z"/>
<path style="fill:#bed8fa; stroke:none;" d="M124 62L125 63L124 62M137 62L138 63L137 62M86 63L87 64L86 63M105 63L105 64L108 64L105 63z"/>
<path style="fill:#dc7c84; stroke:none;" d="M108 63L108 64L111 64L108 63z"/>
<path style="fill:#4a7da4; stroke:none;" d="M111 63L111 64L114 64L111 63z"/>
<path style="fill:#dc7c84; stroke:none;" d="M114 63L114 64L117 64L114 63z"/>
<path style="fill:#bed8fa; stroke:none;" d="M117 63L117 64L120 64L117 63M138 63L139 64L138 63z"/>
<path style="fill:#dc7c84; stroke:none;" d="M85 64L86 65L85 64M139 64L140 65L139 64z"/>
<path style="fill:#bed8fa; stroke:none;" d="M139 65L140 66L139 65z"/>
<path style="fill:#4a7da4; stroke:none;" d="M84 66L84 73L85 73L84 66M140 67L140 73L141 73L140 67z"/>
<path style="fill:#dc7c84; stroke:none;" d="M84 73L85 74L84 73M140 73L141 74L140 73z"/>
<path style="fill:#bed8fa; stroke:none;" d="M84 74L85 75L84 74M140 74L141 75L140 74z"/>
<path style="fill:#4a7da4; stroke:none;" d="M83 75L84 76L83 75M141 75L142 76L141 75z"/>
<path style="fill:#bed8fa; stroke:none;" d="M141 76L142 77L141 76M82 77L83 78L82 77M142 77L143 78L142 77z"/>
<path style="fill:#dc7c84; stroke:none;" d="M80 78L81 79L80 78M144 78L145 79L144 78z"/>
<path style="fill:#e5ebf7; stroke:none;" d="M0 116L0 225L99 225L99 224C59.2975 222.291 23.6513 190.282 9.01157 155C3.83995 142.536 4.91989 127.725 0 116M224 119C223.967 169.486 176.812 222.931 125 224L125 225L225 225L225 151L224 119M90 139L91 140L90 139z"/>
<path style="fill:#4a7da4; stroke:none;" d="M92.3333 139.667L92.6667 140.333L92.3333 139.667z"/>
<path style="fill:#bed8fa; stroke:none;" d="M93 139L94 140L93 139M131 139L132 140L131 139z"/>
<path style="fill:#4a7da4; stroke:none;" d="M132.333 139.667L132.667 140.333L132.333 139.667z"/>
<path style="fill:#e5ebf7; stroke:none;" d="M134 139L135 140L134 139M88 140L89 141L88 140z"/>
<path style="fill:#4a7da4; stroke:none;" d="M90 140L91 141L90 140z"/>
<path style="fill:#345c7a; stroke:none;" d="M91 140L70 151C71.0288 155.291 75.1295 160.243 74.8951 164.576C74.6144 169.762 69.2443 172.099 70.537 178C73.8387 193.071 96.4151 218.665 110 225L91.0039 172L89.1705 154L91 140M133 140C133.941 146.403 136.33 152.411 135.91 159C134.367 183.205 121.482 202.498 115 225C128.707 217.889 151.048 193.591 154.463 178C155.758 172.09 150.388 169.662 150.105 164.424C149.875 160.174 153.986 155.228 155 151L133 140z"/>
<path style="fill:#4a7da4; stroke:none;" d="M134 140L135 141L134 140z"/>
<path style="fill:#e5ebf7; stroke:none;" d="M136 140L137 141L136 140M86 141L87 142L86 141z"/>
<path style="fill:#4a7da4; stroke:none;" d="M88 141L89 142L88 141z"/>
<path style="fill:#bed8fa; stroke:none;" d="M92 141L93 142L92 141M132 141L133 142L132 141z"/>
<path style="fill:#4a7da4; stroke:none;" d="M136 141L137 142L136 141z"/>
<path style="fill:#e5ebf7; stroke:none;" d="M138 141L139 142L138 141M84 142L85 143L84 142z"/>
<path style="fill:#4a7da4; stroke:none;" d="M86 142L87 143L86 142M138 142L139 143L138 142z"/>
<path style="fill:#e5ebf7; stroke:none;" d="M140.667 142.333L141.333 142.667L140.667 142.333M82 143L83 144L82 143z"/>
<path style="fill:#4a7da4; stroke:none;" d="M84 143L85 144L84 143M91 143L92 144L91 143M133 143L134 144L133 143M140 143L141 144L140 143z"/>
<path style="fill:#e5ebf7; stroke:none;" d="M142 143L143 144L142 143M80 144L81 145L80 144z"/>
<path style="fill:#4a7da4; stroke:none;" d="M82 144L83 145L82 144z"/>
<path style="fill:#bed8fa; stroke:none;" d="M91 144L92 145L91 144M133 144L134 145L133 144z"/>
<path style="fill:#4a7da4; stroke:none;" d="M142 144L143 145L142 144z"/>
<path style="fill:#e5ebf7; stroke:none;" d="M144.667 144.333L145.333 144.667L144.667 144.333M77.6667 145.333L78.3333 145.667L77.6667 145.333z"/>
<path style="fill:#4a7da4; stroke:none;" d="M80 145L81 146L80 145M144 145L145 146L144 145z"/>
<path style="fill:#e5ebf7; stroke:none;" d="M146.667 145.333L147.333 145.667L146.667 145.333M75.6667 146.333L76.3333 146.667L75.6667 146.333z"/>
<path style="fill:#4a7da4; stroke:none;" d="M78 146L79 147L78 146M90 146L91 147L90 146M134 146L135 147L134 146M146 146L147 147L146 146z"/>
<path style="fill:#e5ebf7; stroke:none;" d="M148.667 146.333L149.333 146.667L148.667 146.333M73.6667 147.333L74.3333 147.667L73.6667 147.333z"/>
<path style="fill:#4a7da4; stroke:none;" d="M76 147L77 148L76 147z"/>
<path style="fill:#bed8fa; stroke:none;" d="M90.3333 147.667L90.6667 148.333L90.3333 147.667M134.333 147.667L134.667 148.333L134.333 147.667z"/>
<path style="fill:#4a7da4; stroke:none;" d="M148 147L149 148L148 147z"/>
<path style="fill:#e5ebf7; stroke:none;" d="M150.667 147.333L151.333 147.667L150.667 147.333M71.6667 148.333L72.3333 148.667L71.6667 148.333z"/>
<path style="fill:#4a7da4; stroke:none;" d="M74 148L75 149L74 148M150 148L151 149L150 148z"/>
<path style="fill:#e5ebf7; stroke:none;" d="M152.667 148.333L153.333 148.667L152.667 148.333M70 149L71 150L70 149z"/>
<path style="fill:#4a7da4; stroke:none;" d="M72 149L73 150L72 149M152 149L153 150L152 149z"/>
<path style="fill:#e5ebf7; stroke:none;" d="M154 149L155 150L154 149M67.6667 150.333L68.3333 150.667L67.6667 150.333M156 150L156 151L159 151L156 150M63 151L63 152L66 152L63 151z"/>
<path style="fill:#4a7da4; stroke:none;" d="M108 225C97.0212 209.414 77.5878 197.786 71.1373 179C69.0397 172.891 74.5144 170.511 75.098 165C75.5893 160.36 71.4856 155.287 70 151C62.6074 152.71 55.1213 155.065 48 157.696C31.8366 163.667 24.4854 184.582 38.0008 196.829C56.8648 213.924 82.6286 223.911 108 225M89 151L89 163L90 163L89 151M135 151L135 163L136 163L135 151M155 151C153.514 155.287 149.411 160.36 149.902 165C150.43 169.989 155.586 172.527 154.181 178C150.042 194.115 129.109 214.766 116 224L116 225L136 223L135 221L140 222L140 220L144 221L143 219L144 219L147 218L150 219L150 217L153 218L152 216L155 217L157 214L160 215L162 214L162 212L164 213L164 211L166 212L166 210L167 210L168 211L171 209L171 207L172 207L173 208L176 206L178 202L180 203L182 199C188.674 198.336 192.609 190.062 193.06 184C193.26 181.314 195.236 176.543 192 176L193 172L192 170L190 170L191 168L187 166C185.215 156.467 163.203 152.881 155 151z"/>
<path style="fill:#e5ebf7; stroke:none;" d="M159 151L159 152L162 152L159 151M60.6667 152.333L61.3333 152.667L60.6667 152.333M163.667 152.333L164.333 152.667L163.667 152.333M57.6667 153.333L58.3333 153.667L57.6667 153.333M166.667 153.333L167.333 153.667L166.667 153.333M54.6667 154.333L55.3333 154.667L54.6667 154.333M169.667 154.333L170.333 154.667L169.667 154.333M51.6667 155.333L52.3333 155.667L51.6667 155.333M172.667 155.333L173.333 155.667L172.667 155.333M48.6667 156.333L49.3333 156.667L48.6667 156.333M176 156L177 157L176 156M45.6667 157.333L46.3333 157.667L45.6667 157.333M178.667 157.333L179.333 157.667L178.667 157.333M43.6667 158.333L44.3333 158.667L43.6667 158.333M180.667 158.333L181.333 158.667L180.667 158.333M42 159L43 160L42 159M182 159L183 160L182 159M40 160L39 162L40 160M184 160L185 161L184 160z"/>
<path style="fill:#bed8fa; stroke:none;" d="M111 161L110 163L111 161z"/>
<path style="fill:#dc7c84; stroke:none;" d="M102 169C103.13 172.358 106.054 175.463 106.386 179C107.098 186.584 101.77 194.413 101.404 202C101.204 206.149 107.594 224.913 112.892 224.079C116.336 223.536 118.444 216.681 119.742 214C125.824 201.427 120.289 193.789 118.724 181C118.196 176.69 122.189 173.967 121.883 170.015C120.848 156.629 106.915 165.297 102 169z"/>
<path style="fill:#e5ebf7; stroke:none;" d="M38 162L39 163L38 162M37 163L38 164L37 163z"/>
<path style="fill:#bed8fa; stroke:none;" d="M116 163L117 164L116 163z"/>
<path style="fill:#345c7a; stroke:none;" d="M185 163L187 165L185 163z"/>
<path style="fill:#e5ebf7; stroke:none;" d="M36 164L34 167L36 164z"/>
<path style="fill:#bed8fa; stroke:none;" d="M117 164L118 165L117 164M90 165L90 168L91 168L90 165M134 165L134 168L135 168L134 165z"/>
<path style="fill:#345c7a; stroke:none;" d="M187 165L188 166L187 165M188 166L189 167L188 166z"/>
<path style="fill:#bed8fa; stroke:none;" d="M104 167L105 168L104 167z"/>
<path style="fill:#e5ebf7; stroke:none;" d="M33 168L34 169L33 168z"/>
<path style="fill:#4a7da4; stroke:none;" d="M90.3333 168.667L90.6667 169.333L90.3333 168.667M134.333 168.667L134.667 169.333L134.333 168.667z"/>
<path style="fill:#345c7a; stroke:none;" d="M189 168L190 169L189 168z"/>
<path style="fill:#e5ebf7; stroke:none;" d="M32.3333 169.667L32.6667 170.333L32.3333 169.667z"/>
<path style="fill:#345c7a; stroke:none;" d="M190 169L191 170L190 169z"/>
<path style="fill:#bed8fa; stroke:none;" d="M91 171L91 174L92 174L91 171M102 171L103 172L102 171M133.333 171.667L133.667 172.333L133.333 171.667z"/>
<path style="fill:#345c7a; stroke:none;" d="M191 171L192 172L191 171z"/>
<path style="fill:#e5ebf7; stroke:none;" d="M31.3333 172.667L31.6667 173.333L31.3333 172.667z"/>
<path style="fill:#bed8fa; stroke:none;" d="M121 172L122 173L121 172z"/>
<path style="fill:#4a7da4; stroke:none;" d="M133.333 173.667L133.667 174.333L133.333 173.667z"/>
<path style="fill:#e5ebf7; stroke:none;" d="M30 174L30 177L31 177L30 174z"/>
<path style="fill:#4a7da4; stroke:none;" d="M91 174L92 175L91 174z"/>
<path style="fill:#345c7a; stroke:none;" d="M192.333 174.667L192.667 175.333L192.333 174.667z"/>
<path style="fill:#bed8fa; stroke:none;" d="M92.3333 176.667L92.6667 177.333L92.3333 176.667M106 176L107 177L106 176M118 176L119 177L118 176M132.333 176.667L132.667 177.333L132.333 176.667z"/>
<path style="fill:#4a7da4; stroke:none;" d="M92 178L93 179L92 178M132 178L133 179L132 178z"/>
<path style="fill:#bed8fa; stroke:none;" d="M93.3333 180.667L93.6667 181.333L93.3333 180.667M106 180L107 181L106 180M118 180L119 181L118 180M131.333 180.667L131.667 181.333L131.333 180.667z"/>
<path style="fill:#345c7a; stroke:none;" d="M193 180L193 190L194 190L193 180z"/>
<path style="fill:#4a7da4; stroke:none;" d="M93 182L94 183L93 182M131 182L132 183L131 182z"/>
<path style="fill:#bed8fa; stroke:none;" d="M94 184L95 185L94 184M105 184L106 185L105 184M119 184L120 185L119 184M130 184L131 185L130 184z"/>
<path style="fill:#4a7da4; stroke:none;" d="M94 185L95 186L94 185M130 185L131 186L130 185z"/>
<path style="fill:#bed8fa; stroke:none;" d="M95 187L96 188L95 187M129 187L130 188L129 187z"/>
<path style="fill:#4a7da4; stroke:none;" d="M95.3333 188.667L95.6667 189.333L95.3333 188.667z"/>
<path style="fill:#bed8fa; stroke:none;" d="M104 188L105 189L104 188M120 188L121 189L120 188z"/>
<path style="fill:#4a7da4; stroke:none;" d="M129.333 188.667L129.667 189.333L129.333 188.667z"/>
<path style="fill:#bed8fa; stroke:none;" d="M31 190L32 191L31 190M96 190L97 191L96 190M128 190L129 191L128 190z"/>
<path style="fill:#345c7a; stroke:none;" d="M192 190L193 191L192 190z"/>
<path style="fill:#bed8fa; stroke:none;" d="M32 191L33 192L32 191z"/>
<path style="fill:#4a7da4; stroke:none;" d="M96.3333 191.667L96.6667 192.333L96.3333 191.667M128 191L129 192L128 191z"/>
<path style="fill:#345c7a; stroke:none;" d="M191 191L192 192L191 191z"/>
<path style="fill:#bed8fa; stroke:none;" d="M33 192L34 193L33 192M103 192L104 193L103 192M121 192L122 193L121 192z"/>
<path style="fill:#345c7a; stroke:none;" d="M190 192L191 193L190 192z"/>
<path style="fill:#bed8fa; stroke:none;" d="M34 193L35 194L34 193M97 193L98 194L97 193M127 193L128 194L127 193z"/>
<path style="fill:#345c7a; stroke:none;" d="M189 193L190 194L189 193z"/>
<path style="fill:#bed8fa; stroke:none;" d="M35 194L36 195L35 194z"/>
<path style="fill:#4a7da4; stroke:none;" d="M97 194L98 195L97 194M127 194L128 195L127 194z"/>
<path style="fill:#345c7a; stroke:none;" d="M188 194L189 195L188 194z"/>
<path style="fill:#bed8fa; stroke:none;" d="M36 195L37 196L36 195z"/>
<path style="fill:#345c7a; stroke:none;" d="M187 195L188 196L187 195z"/>
<path style="fill:#bed8fa; stroke:none;" d="M37 196L38 197L37 196M98 196L99 197L98 196M102 196L103 197L102 196M122 196L123 197L122 196M126 196L127 197L126 196z"/>
<path style="fill:#4a7da4; stroke:none;" d="M98 197L99 198L98 197M126 197L127 198L126 197z"/>
<path style="fill:#bed8fa; stroke:none;" d="M99.3333 198.667L99.6667 199.333L99.3333 198.667M125.333 198.667L125.667 199.333L125.333 198.667z"/>
<path style="fill:#345c7a; stroke:none;" d="M183 198L184 199L183 198z"/>
<path style="fill:#bed8fa; stroke:none;" d="M41 199L42 200L41 199z"/>
<path style="fill:#345c7a; stroke:none;" d="M182 199L181 201L182 199z"/>
<path style="fill:#bed8fa; stroke:none;" d="M42 200L43 201L42 200z"/>
<path style="fill:#4a7da4; stroke:none;" d="M99 200L100 201L99 200z"/>
<path style="fill:#bed8fa; stroke:none;" d="M101 200L102 201L101 200M123 200L124 201L123 200z"/>
<path style="fill:#4a7da4; stroke:none;" d="M125 200L126 201L125 200z"/>
<path style="fill:#bed8fa; stroke:none;" d="M182 200L183 201L182 200M43 201L44 202L43 201M100 201L101 202L100 201M124 201L125 202L124 201M181 201L182 202L181 201z"/>
<path style="fill:#4a7da4; stroke:none;" d="M100 202L101 203L100 202M124 202L125 203L124 202z"/>
<path style="fill:#345c7a; stroke:none;" d="M178 202L177 204L178 202z"/>
<path style="fill:#bed8fa; stroke:none;" d="M46 203L47 204L46 203M178 203L179 204L178 203M47 204L48 205L47 204z"/>
<path style="fill:#345c7a; stroke:none;" d="M175 204L176 205L175 204z"/>
<path style="fill:#bed8fa; stroke:none;" d="M177 204L178 205L177 204M49 205L50 206L49 205z"/>
<path style="fill:#4a7da4; stroke:none;" d="M101 205L102 206L101 205M123 205L124 206L123 205z"/>
<path style="fill:#345c7a; stroke:none;" d="M174 205L172 206L172 207L174 205z"/>
<path style="fill:#bed8fa; stroke:none;" d="M50 206L51 207L50 206M174 206L175 207L174 206M52 207L53 208L52 207z"/>
<path style="fill:#4a7da4; stroke:none;" d="M102 207L103 208L102 207M122 207L123 208L122 207z"/>
<path style="fill:#345c7a; stroke:none;" d="M171 207L172 208L171 207M169 208L167 209L167 210L169 208z"/>
<path style="fill:#bed8fa; stroke:none;" d="M171 208L172 209L171 208M55 209L56 210L55 209M169 209L170 210L169 209M57 210L58 211L57 210z"/>
<path style="fill:#4a7da4; stroke:none;" d="M103 210L104 211L103 210z"/>
<path style="fill:#345c7a; stroke:none;" d="M166 210L167 211L166 210z"/>
<path style="fill:#bed8fa; stroke:none;" d="M59 211L60 212L59 211z"/>
<path style="fill:#345c7a; stroke:none;" d="M164 211L165 212L164 211z"/>
<path style="fill:#bed8fa; stroke:none;" d="M60 212L61 213L60 212z"/>
<path style="fill:#4a7da4; stroke:none;" d="M104 212L105 213L104 212M120 212L121 213L120 212z"/>
<path style="fill:#345c7a; stroke:none;" d="M162 212L163 213L162 212z"/>
<path style="fill:#bed8fa; stroke:none;" d="M62 213L63 214L62 213z"/>
<path style="fill:#345c7a; stroke:none;" d="M160 213L161 214L160 213z"/>
<path style="fill:#4a7da4; stroke:none;" d="M105 214L106 215L105 214M119 214L120 215L119 214z"/>
<path style="fill:#345c7a; stroke:none;" d="M157.667 214.333L158.333 214.667L157.667 214.333z"/>
<path style="fill:#bed8fa; stroke:none;" d="M67 215L68 216L67 215z"/>
<path style="fill:#345c7a; stroke:none;" d="M155 215L156 216L155 215z"/>
<path style="fill:#bed8fa; stroke:none;" d="M157 215L158 216L157 215M69 216L70 217L69 216z"/>
<path style="fill:#4a7da4; stroke:none;" d="M106 216L107 217L106 216M118 216L119 217L118 216z"/>
<path style="fill:#345c7a; stroke:none;" d="M152.667 216.333L153.333 216.667L152.667 216.333z"/>
<path style="fill:#bed8fa; stroke:none;" d="M155 216L156 217L155 216M72 217L73 218L72 217z"/>
<path style="fill:#345c7a; stroke:none;" d="M150.667 217.333L151.333 217.667L150.667 217.333z"/>
<path style="fill:#bed8fa; stroke:none;" d="M74 218L75 219L74 218z"/>
<path style="fill:#4a7da4; stroke:none;" d="M107 218L108 219L107 218M117 218L118 219L117 218z"/>
<path style="fill:#345c7a; stroke:none;" d="M147 218L148 219L147 218z"/>
<path style="fill:#bed8fa; stroke:none;" d="M150 218L151 219L150 218M77 219L78 220L77 219z"/>
<path style="fill:#345c7a; stroke:none;" d="M143.667 219.333L144.333 219.667L143.667 219.333z"/>
<path style="fill:#bed8fa; stroke:none;" d="M147 219L148 220L147 219M80.6667 220.333L81.3333 220.667L80.6667 220.333z"/>
<path style="fill:#4a7da4; stroke:none;" d="M108 220L109 221L108 220M116 220L117 221L116 220z"/>
<path style="fill:#345c7a; stroke:none;" d="M140.667 220.333L141.333 220.667L140.667 220.333z"/>
<path style="fill:#bed8fa; stroke:none;" d="M144 220L145 221L144 220M84 221L85 222L84 221z"/>
<path style="fill:#345c7a; stroke:none;" d="M135 221L135 222L138 222L135 221z"/>
<path style="fill:#bed8fa; stroke:none;" d="M140 221L141 222L140 221M88.6667 222.333L89.3333 222.667L88.6667 222.333z"/>
<path style="fill:#4a7da4; stroke:none;" d="M109 222L110 223L109 222M115 222L116 223L115 222z"/>
<path style="fill:#345c7a; stroke:none;" d="M130 222L130 223L133 223L130 222z"/>
<path style="fill:#bed8fa; stroke:none;" d="M136 222L137 223L136 222M93 223L93 224L96 224L93 223z"/>
<path style="fill:#345c7a; stroke:none;" d="M121 223L121 224L127 224L121 223z"/>
<path style="fill:#bed8fa; stroke:none;" d="M130.667 223.333L131.333 223.667L130.667 223.333M99 224L99 225L103 225L99 224z"/>
<path style="fill:#4a7da4; stroke:none;" d="M110 224L111 225L110 224M114 224L115 225L114 224z"/>
<path style="fill:#bed8fa; stroke:none;" d="M121 224L121 225L125 225L121 224z"/>
</svg>
